<svg width="84" height="84" viewBox="0 0 84 84" fill="none" xmlns="http://www.w3.org/2000/svg">
<path d="M42 0C30.59 0 29.1655 0.0525 24.6855 0.252C20.2125 0.462 17.1675 1.1655 14.49 2.205C11.7285 3.276 9.3835 4.7145 7.049 7.049C4.7145 9.3835 3.2725 11.725 2.205 14.49C1.1655 17.1675 0.4585 20.2125 0.252 24.6855C0.042 29.1655 0 30.59 0 42C0 53.41 0.0525 54.8345 0.252 59.3145C0.462 63.784 1.1655 66.8325 2.205 69.51C3.276 72.268 4.7145 74.6165 7.049 76.951C9.3835 79.282 11.725 80.7275 14.49 81.795C17.171 82.831 20.216 83.5415 24.6855 83.748C29.1655 83.958 30.59 84 42 84C53.41 84 54.8345 83.9475 59.3145 83.748C63.784 83.538 66.8325 82.831 69.51 81.795C72.268 80.724 74.6165 79.282 76.951 76.951C79.282 74.6165 80.7275 72.2785 81.795 69.51C82.831 66.8325 83.5415 63.784 83.748 59.3145C83.958 54.8345 84 53.41 84 42C84 30.59 83.9475 29.1655 83.748 24.6855C83.538 20.216 82.831 17.164 81.795 14.49C80.724 11.7285 79.282 9.3835 76.951 7.049C74.6165 4.7145 72.2785 3.2725 69.51 2.205C66.8325 1.1655 63.784 0.4585 59.3145 0.252C54.8345 0.042 53.41 0 42 0ZM42 7.56C53.2105 7.56 54.5475 7.616 58.975 7.8085C63.07 8.001 65.2925 8.68 66.7695 9.261C68.7365 10.0205 70.1295 10.9305 71.6065 12.397C73.073 13.867 73.983 15.2635 74.7425 17.2305C75.3165 18.7075 76.0025 20.93 76.188 25.025C76.3875 29.456 76.433 30.786 76.433 42C76.433 53.214 76.3805 54.5475 76.174 58.975C75.9605 63.07 75.278 65.2925 74.7005 66.7695C73.9165 68.7365 73.024 70.1295 71.554 71.6065C70.0875 73.073 68.67 73.983 66.724 74.7425C65.254 75.3165 62.9965 76.0025 58.9015 76.188C54.4425 76.3875 53.13 76.433 41.895 76.433C30.6565 76.433 29.344 76.3805 24.8885 76.174C20.79 75.9605 18.5325 75.278 17.0625 74.7005C15.071 73.9165 13.7025 73.024 12.236 71.554C10.7625 70.0875 9.821 68.67 9.086 66.724C8.5085 65.254 7.8295 62.9965 7.616 58.9015C7.4585 54.4915 7.4025 53.13 7.4025 41.9475C7.4025 30.7615 7.4585 29.3965 7.616 24.934C7.8295 20.839 8.5085 18.585 9.086 17.115C9.821 15.12 10.7625 13.755 12.236 12.2815C13.7025 10.815 15.071 9.87 17.0625 9.1385C18.5325 8.5575 20.741 7.875 24.836 7.665C29.2985 7.5075 30.611 7.455 41.8425 7.455L42 7.56ZM42 20.433C30.0825 20.433 20.433 30.093 20.433 42C20.433 53.9175 30.093 63.567 42 63.567C53.9175 63.567 63.567 53.907 63.567 42C63.567 30.0825 53.907 20.433 42 20.433ZM42 56C34.265 56 28 49.735 28 42C28 34.265 34.265 28 42 28C49.735 28 56 34.265 56 42C56 49.735 49.735 56 42 56ZM69.461 19.5825C69.461 22.365 67.2 24.6225 64.421 24.6225C61.6385 24.6225 59.381 22.3615 59.381 19.5825C59.381 16.8035 61.642 14.546 64.421 14.546C67.1965 14.5425 69.461 16.8035 69.461 19.5825Z" fill="white"/>
</svg>
