<svg width="84" height="84" viewBox="0 0 84 84" fill="none" xmlns="http://www.w3.org/2000/svg">
<g clip-path="url(#clip0_65_124)">
<path d="M52.5581 76.3809C56.1336 78.6872 60.3944 79.6926 64.6239 79.2278C68.8534 78.7623 72.7937 76.8551 75.7823 73.8262L78.395 71.2714C79.5405 70.0996 80.1818 68.5264 80.1818 66.888C80.1818 65.2496 79.5405 63.6758 78.395 62.5046L67.3055 51.5309C66.1437 50.3892 64.5799 49.7494 62.9509 49.7494C61.322 49.7494 59.7582 50.3892 58.5964 51.5309C57.4248 52.6764 55.8514 53.3178 54.2128 53.3178C52.5743 53.3178 51.0009 52.6764 49.8293 51.5309L32.4112 34.1128C31.8301 33.5402 31.3687 32.8578 31.0537 32.1053C30.7388 31.3527 30.5766 30.545 30.5766 29.7293C30.5766 28.9135 30.7388 28.1058 31.0537 27.3533C31.3687 26.6007 31.8301 25.9183 32.4112 25.3457C33.5529 24.1839 34.1927 22.6201 34.1927 20.9912C34.1927 19.3622 33.5529 17.7985 32.4112 16.6366L21.3798 5.60515C20.208 4.4597 18.6348 3.81836 16.9964 3.81836C15.3574 3.81836 13.7842 4.4597 12.6124 5.60515L10.0576 8.21789C7.02924 11.2065 5.12204 15.1468 4.65659 19.3763C4.19113 23.6058 5.19651 27.8665 7.50342 31.442C19.522 49.1547 34.8145 64.4077 52.5581 76.3809Z" stroke="white" stroke-width="6" stroke-linecap="round" stroke-linejoin="round"/>
</g>
<defs>
<clipPath id="clip0_65_124">
<rect width="84" height="84" fill="white" transform="matrix(-1 0 0 1 84 0)"/>
</clipPath>
</defs>
</svg>
