<svg width="100" height="100" viewBox="0 0 100 100" fill="none" xmlns="http://www.w3.org/2000/svg">
<path d="M55.625 21.9167L60.9166 32.7083C61.3656 33.6169 62.0288 34.4027 62.849 34.9979C63.6693 35.5931 64.622 35.9799 65.625 36.125L77.5 37.8333C78.6548 38.001 79.7397 38.4887 80.6317 39.2412C81.5237 39.9936 82.1873 40.9808 82.5472 42.0909C82.9071 43.201 82.949 44.3897 82.6682 45.5224C82.3874 46.6551 81.7951 47.6866 80.9583 48.5L72.375 56.8334C71.6263 57.5527 71.07 58.4484 70.757 59.4384C70.444 60.4283 70.3843 61.481 70.5833 62.5L72.5833 74.3334C72.7757 75.4788 72.6451 76.6552 72.2062 77.7305C71.7673 78.8059 71.0375 79.7377 70.0985 80.4213C69.1595 81.105 68.0487 81.5135 66.8905 81.601C65.7323 81.6885 64.5726 81.4515 63.5416 80.9167L52.9166 75.25C52.0165 74.7791 51.0158 74.5331 50 74.5331C48.9841 74.5331 47.9834 74.7791 47.0833 75.25L36.4583 80.8334C35.4273 81.3682 34.2676 81.6052 33.1095 81.5177C31.9513 81.4302 30.8404 81.0217 29.9014 80.338C28.9625 79.6543 28.2326 78.7226 27.7937 77.6472C27.3548 76.5718 27.2242 75.3955 27.4166 74.25L29.4166 62.5C29.5939 61.5002 29.5233 60.4722 29.2109 59.5061C28.8986 58.5399 28.354 57.6651 27.625 56.9584L19.0416 48.625C18.1672 47.8172 17.5417 46.7766 17.2386 45.6254C16.9356 44.4742 16.9675 43.2604 17.3308 42.1268C17.6941 40.9932 18.3736 39.9869 19.2893 39.2263C20.205 38.4657 21.3189 37.9824 22.5 37.8333L34.375 36.125C35.378 35.9799 36.3306 35.5931 37.1509 34.9979C37.9711 34.4027 38.6343 33.6169 39.0833 32.7083L44.375 21.9167C44.898 20.8729 45.7011 19.9952 46.6946 19.3818C47.688 18.7685 48.8325 18.4436 50 18.4436C51.1675 18.4436 52.312 18.7685 53.3054 19.3818C54.2988 19.9952 55.1019 20.8729 55.625 21.9167Z" stroke="white" stroke-width="4" stroke-miterlimit="10"/>
</svg>
